# xmcd
#
# Track frame offsets: 
#        150
#        25097
#        49315
#        76832
#        101350
#        107222
#        134157
#        158207
#        164397
#        189257
#        220530
#        247372
#
# Disc length: 3665 seconds
#
# Revision: 1
# Processed by: cddbd v1.5.2PL0 Copyright (c) Steve Scherf et al.
# Submitted via: ExactAudioCopy v0.95b4
#
DISCID=a10e4f0c
DTITLE=Aurore Boréalis - Mélodie De L'espace Et Des Étoiles
DYEAR=1999
DGENRE=New Age
TTITLE0=Eclipse
TTITLE1=Rendez-Vous Avec La Lune
TTITLE2=Les Yeux Vers Les Étoiles
TTITLE3=Les Anneaux De Saturne
TTITLE4=Constellations (Part 1)
TTITLE5=Alpha Du Centaure
TTITLE6=Le Chant Des Satellites
TTITLE7=Constellations (Part 2)
TTITLE8=Le W Du Cassiopé
TTITLE9=La Légende D'orion
TTITLE10=Constellations (Final)
TTITLE11=Retour Vers La Planète Bleue
EXTD=YEAR: 1999
EXTT0=
EXTT1=
EXTT2=
EXTT3=
EXTT4=
EXTT5=
EXTT6=
EXTT7=
EXTT8=
EXTT9=
EXTT10=
EXTT11=
PLAYORDER=
